<?xml version="1.0" encoding="utf-8"?>
<svg xmlns="http://www.w3.org/2000/svg" viewBox="0 0 395.78 185.04">
  <g transform="translate(20, 0) translate(95, 90) scale(0.85) translate(-95, -90)">
    <path fill="#706b68" d="M61.69,130.31c-0.16-1.64-0.31-3.28-0.47-4.91c-0.92-9.12-6.01-16.24-11.25-23.27c-5.02-6.73-10.29-13.27-13.6-21.12
			c-5.48-13.01-5.87-26.34-1.36-39.5c7.35-21.39,22.38-35.1,44.48-39.77c23.44-4.95,43.18,2.62,58.08,21.24
			c13.59,16.98,16.02,36.26,8.94,56.7c-2.61,7.54-7.47,13.83-12.28,20.11c-4.34,5.67-8.88,11.29-11.05,18.23
			c-0.98,3.14-1.27,6.5-1.83,9.77c-0.15,0.87-0.15,1.78-0.2,2.51c-9.24,0-18.21,0-27.55,0c0-4.28-0.07-8.33,0.08-12.38
			c0.02-0.55,1.02-1.18,1.68-1.59c3.48-2.18,4.93-5.43,4.1-9.36c-0.66-3.15-3.54-5.89-6.65-6.33c-4.34-0.61-7.32,0.91-9.26,4.71
			c-2.04,4.01-0.51,8.94,3.69,11.06c1.37,0.69,1.82,1.42,1.79,2.83c-0.06,3-0.06,6,0,9c0.03,1.44-0.41,2.11-1.98,2.11
			C78.67,130.29,70.27,130.31,61.69,130.31z M98.35,40.31c-5.67,6.37-7.27,12.45-3.25,20.31c0.25,0.49-0.06,1.47-0.42,2.02
			c-3.53,5.45-3.63,11.07-0.26,16.44c1.44,2.29,1.56,3.89,0.67,6.4c-2.27,6.35,1.54,14.1,7.68,16.51c7.25,2.85,14.86-0.18,18.06-7.4
			c0.65-1.46,1.42-1.99,2.85-2.21c10.78-1.64,16.57-12.19,12.42-22.37c-0.3-0.75-0.11-2.18,0.43-2.72
			c7.35-7.28,6.81-18.14-1.57-24.62c-0.43-0.34-0.77-1.2-0.68-1.74c1.09-7.05-2.91-13.79-9.82-15.55c-2.34-0.6-3.36-1.8-4.48-3.64
			c-3.03-4.95-7.61-7.53-13.41-6.97c-5.93,0.57-10.24,3.69-12.23,9.53C92.26,30.44,93.45,35.79,98.35,40.31z M83.95,40.42
			c0.57-0.62,1.07-1.16,1.57-1.71c4.87-5.31,4.72-14.14-0.21-19.3c-7.89-8.25-20.15-4.75-23.55,3.57c-0.33,0.81-1.17,1.74-1.96,1.97
			c-9.04,2.56-11.82,6.38-11.62,16.06c0.01,0.61-0.4,1.48-0.89,1.8c-8.23,5.44-8.58,18.14-1.14,24.78c0.45,0.4,0.78,1.57,0.53,2.01
			c-5.06,8.6,0.59,21.23,12.19,22.91c0.9,0.13,2,1.04,2.42,1.88c1.84,3.64,4.39,6.56,8.25,7.9c5.33,1.85,10.2,0.73,14.2-3.31
			c3.97-4.02,5.13-8.84,3.3-14.2c-0.65-1.9-0.5-3.2,0.66-4.95c3.8-5.69,3.36-11.57,0.1-17.43c-0.39-0.69-0.37-1.77-0.19-2.59
			c0.51-2.34,1.57-4.61,1.74-6.95C89.69,47.93,87.68,43.8,83.95,40.42z"/>
    <path fill="#706b68" d="M91.21,146.82c-9.24,0-18.48-0.03-27.72,0.02c-2.38,0.01-4.24-0.77-5.37-2.91c-1.09-2.09-0.91-4.16,0.25-6.19
			c1.2-2.07,3.13-2.54,5.33-2.53c7.08,0.01,14.15,0,21.23,0c11.32,0,22.64,0,33.96,0c2.5,0,4.64,0.71,5.73,3.17
			c0.97,2.19,0.9,4.37-0.6,6.36c-1.35,1.8-3.27,2.09-5.34,2.09C109.53,146.81,100.37,146.82,91.21,146.82z"/>
    <path fill="#706b68" d="M91.16,151.77c8.16,0,16.33-0.01,24.49,0c4.08,0,6.52,2.06,6.58,5.53c0.07,3.72-2.25,6.19-6.31,6.2
			c-16.41,0.07-32.83,0.05-49.24,0.01c-2.78-0.01-5.08-1.1-6.12-3.87c-0.89-2.37-0.22-5.22,1.73-6.56c1.08-0.74,2.57-1.24,3.88-1.26
			C74.5,151.72,82.83,151.77,91.16,151.77z"/>
    <path fill="#706b68" d="M74.15,167.99c11.55,0,22.94,0,34.32,0c0.86,7.44-7.33,16.94-17.43,16.7C81.82,184.47,73.43,176.48,74.15,167.99z"/>
    <path fill="#f1c97d" d="M168.87,10.65c-0.23,0.26-0.62,0.89-1.18,1.29c-3.87,2.72-7.76,5.41-11.68,8.06c-1.31,0.89-2.91,1.08-3.64-0.47
			c-0.34-0.73,0.28-2.51,1.02-3.04c3.84-2.75,7.82-5.33,11.84-7.81C167.12,7.52,168.94,8.4,168.87,10.65z"/>
    <path fill="#f1c97d" d="M1.8,81.88c-0.41-0.53-1.44-1.29-1.33-1.84c0.17-0.92,0.92-2.27,1.68-2.46c3.7-0.93,7.48-1.54,11.23-2.27
			c0.81-0.16,1.63-0.31,2.44-0.49c1.56-0.34,3.17-0.09,3.19,1.67c0.01,0.84-1.46,2.17-2.48,2.44c-3.12,0.84-6.34,1.28-9.53,1.89
			C5.45,81.12,3.91,81.45,1.8,81.88z"/>
    <path fill="#f1c97d" d="M165.55,50.45c-0.44-0.46-1.61-1.2-1.51-1.68c0.19-0.93,0.97-2.28,1.73-2.46c3.8-0.87,7.67-1.42,11.52-2.07
			c1.07-0.18,2.19-0.62,3.19-0.42c0.88,0.18,1.61,1.08,2.41,1.67c-0.59,0.78-1.07,2.1-1.8,2.25
			C176.12,48.75,171.1,49.52,165.55,50.45z"/>
    <path fill="#f1c97d" d="M165.2,74.49c5.5,1.11,10.39,1.99,15.2,3.18c0.8,0.2,1.26,1.79,1.87,2.73c-0.89,0.4-1.86,1.24-2.67,1.11
			c-4.66-0.71-9.31-1.54-13.9-2.62c-0.98-0.23-1.69-1.66-2.52-2.53C163.93,75.68,164.67,74.99,165.2,74.49z"/>
    <path fill="#f1c97d" d="M16.74,50.42c-5.46-0.93-10.37-1.69-15.24-2.69c-0.74-0.15-1.26-1.39-1.88-2.12c0.85-0.62,1.77-1.85,2.53-1.76
			c4.93,0.62,9.83,1.43,14.69,2.44c0.77,0.16,1.64,1.59,1.74,2.51C18.64,49.32,17.24,50.01,16.74,50.42z"/>
    <path fill="#f1c97d" d="M30.77,103.25c0.31,0.75,0.78,1.48,0.89,2.27c0.09,0.64-0.01,1.64-0.43,1.96c-4.09,3.1-8.22,6.17-12.49,9.03
			c-0.58,0.39-1.97-0.4-2.98-0.65c0.23-0.86,0.19-2.07,0.75-2.52c3.84-3.03,7.79-5.91,11.74-8.79c0.44-0.32,1.08-0.36,1.62-0.53
			C30.17,103.77,30.47,103.51,30.77,103.25z"/>
    <path fill="#f1c97d" d="M15.85,7.96c0.56,0.32,1.14,0.6,1.68,0.95c3.61,2.36,7.23,4.7,10.8,7.1c1.24,0.84,2.69,1.8,1.57,3.6
			c-1.15,1.84-2.57,0.91-3.85,0.06c-3.73-2.48-7.47-4.93-11.11-7.53c-0.66-0.47-1.12-1.61-1.14-2.45c-0.01-0.83,0.66-1.66,1.04-2.5
			C15.18,7.45,15.52,7.71,15.85,7.96z"/>
    <path fill="#f1c97d" d="M167.14,114.86c-0.53,0.64-0.93,1.46-1.57,1.77c-0.53,0.26-1.52,0.16-2.02-0.19c-3.93-2.75-7.8-5.6-11.68-8.43
			c-1.07-0.78-2.17-1.91-0.9-3c0.7-0.6,2.58-0.62,3.42-0.1c3.23,2,6.27,4.33,9.37,6.53c0.81,0.57,1.67,1.09,2.41,1.74
			C166.57,113.55,166.75,114.16,167.14,114.86z"/>
    <path fill="#706b68" d="M95.2,108.79c0,2.03-2,4.2-3.86,4.18c-1.79-0.01-4.1-2.26-4.16-4.03c-0.07-2.05,2.01-3.97,4.27-3.94
			C93.57,105.03,95.2,106.67,95.2,108.79z"/>
    <path fill="#706b68" d="M122.29,87.58c-0.9-1.72-1.02-3.1,0.21-4.7c0.51-0.67,0.38-2.56-0.21-3.2c-1.05-1.14-2.25-0.48-3.39,0.62
			c-1.06,1.03-2.48,1.95-3.89,2.28c-1.6,0.37-2.77,0.77-2.66,2.57c0.12,1.9,1.52,2.15,3.07,2.08c0.49-0.02,0.98,0,1.43,0
			c1.31,3.86-0.43,7.95-4.13,9.96c-4.09,2.22-8.78,1.39-11.46-2.03c-3.56-4.52-2.79-9.93,1.87-13.25c0.67-0.48,1.58-0.91,1.87-1.59
			c0.34-0.8,0.42-2.01,0.02-2.7c-0.28-0.5-1.6-0.74-2.34-0.57c-1.08,0.25-2.06,0.96-3.07,1.47c-3.56-4.02-3.98-9.08-1.14-13.59
			c2.07,0.96,4.2,1.83,6.2,2.93c0.58,0.32,0.94,1.24,1.18,1.95c0.53,1.56,0.7,3.63,3.01,3.13c2.07-0.44,1.5-2.3,1.6-3.89
			c0.1-1.7,0.58-3.48,1.34-5.01c0.64-1.29,1.49-2.56,0.09-3.46c-0.72-0.46-2.25-0.07-3.22,0.37c-1.16,0.52-2.54,2.38-3.08,2.12
			c-2.16-1.05-4.63-2.3-5.9-4.2c-2.94-4.36-2.89-9.05,0.34-13.48c1.3-1.79,2.74-2.55,5.11-2c1.87,0.43,3.93,0.14,5.9-0.01
			c1.61-0.12,2.78-1.03,2.33-2.81c-0.41-1.62-1.56-1.99-3.3-1.64c-7.73,1.57-14.03-5.34-11.68-12.71c1.22-3.81,4.68-6.73,8.59-6.96
			c4.32-0.26,7.44,1.75,9.65,5.58c-1.47,1.16-2.67,1.55-4.43,0.4c-0.79-0.52-2.78-0.31-3.46,0.35c-1.13,1.11-0.13,2.23,0.88,3.33
			c1.02,1.12,1.42,2.79,2.24,4.12c0.58,0.94,1.4,1.74,2.11,2.6c0.78-0.71,1.78-1.29,2.29-2.16c0.7-1.2-0.7-3.28,1.68-3.88
			c2.61-0.66,5.14-0.7,7.44,0.83c5.22,3.48,6.06,8.96,2.23,13.97c-0.35,0.46-0.97,0.93-0.98,1.41c-0.02,0.89,0.04,2.1,0.59,2.6
			c0.53,0.48,1.84,0.51,2.6,0.21c0.94-0.38,1.67-1.3,2.54-2.02c3.94,2.64,5.58,6.97,4.32,11.96c-1.11,4.38-4.83,7.64-9.36,8.19
			c-0.82,0.1-1.81-0.05-2.44,0.35c-0.79,0.5-1.84,1.53-1.75,2.21c0.09,0.74,1.28,1.8,2.1,1.9c1.43,0.18,3-0.05,4.39-0.49
			c1.41-0.45,2.02,0.13,2.54,1.19C135.45,78.73,129.99,87.5,122.29,87.58z M121.4,47.53c-1.49-0.15-3.11,0.12-3.22,2.21
			c-0.1,1.82,1.37,2.39,2.88,2.34c1.54-0.05,3.36-0.08,3.43-2.32C124.54,47.83,123.21,47.47,121.4,47.53z"/>
    <path fill="#706b68" d="M65.81,24.93c2.24-4.68,7.43-6.78,12.16-4.99c4.75,1.8,7.54,6.94,6.29,11.61c-1.42,5.32-6.06,8.44-11.28,7.59
			c-0.49-0.08-1.1-0.45-1.43-0.27c-0.91,0.49-2.21,1.08-2.39,1.86c-0.17,0.72,0.81,2.4,1.45,2.49c2.33,0.33,4.75,0.4,7.1,0.14
			c1.65-0.19,2.85-0.06,4,1.22c2.89,3.25,3.96,6.96,2.65,11.09c-1.31,4.16-4.06,6.95-8.42,7.74c-0.92-1.02-1.6-2.24-2.63-2.76
			c-0.8-0.41-2.27-0.26-3.01,0.26c-0.44,0.31-0.43,2.16,0.06,2.71c1.74,1.96,2.03,3.96,1.46,6.46c-0.19,0.83,0.95,1.97,1.49,2.96
			c0.98-0.53,2.74-0.99,2.8-1.61c0.32-3.08,2.6-3.88,4.82-4.92c0.96-0.45,1.84-1.07,2.76-1.62c2.99,4.49,2.64,10.08-0.88,13.76
			c-0.69-0.4-1.37-0.9-2.12-1.21c-1.26-0.51-2.66-1.46-3.59,0.51c-0.78,1.66,0.23,2.48,1.36,3.53c1.64,1.54,3.52,3.19,4.33,5.19
			c1.5,3.72,0.01,7.6-3.07,10c-2.87,2.24-6.71,2.53-9.85,0.75c-3.4-1.93-5.28-5.91-4.65-10.18c0.84,0,1.84,0.26,2.57-0.07
			c0.92-0.41,1.63-1.31,2.43-2c-0.7-0.78-1.29-2.1-2.11-2.25c-1.99-0.37-3.52-1-4.8-2.71c-0.49-0.65-2.12-0.45-3.23-0.64
			c-0.14,0.97-0.45,1.96-0.37,2.91c0.05,0.58,0.91,1.09,0.99,1.68c0.12,1,0.13,2.14-0.26,3.01c-0.17,0.39-1.49,0.5-2.22,0.36
			c-6.84-1.31-10.78-8.81-8.13-15.27c0.58-1.4,1.38-1.83,2.91-1.42c1.34,0.36,2.81,0.55,4.19,0.4c0.78-0.08,2.11-1,2.08-1.49
			c-0.04-0.87-0.78-1.87-1.49-2.5c-0.48-0.42-1.42-0.36-2.16-0.44c-5-0.56-8.7-3.67-9.98-8.43c-1.24-4.61,0.44-9.04,4.59-12.01
			c0.66,0.73,1.21,1.8,2.03,2.12c0.89,0.34,2.28,0.32,3.01-0.19c0.46-0.32,0.4-1.93,0.07-2.75c-0.76-1.89-2.21-3.56-2.69-5.49
			c-0.93-3.78,0.73-6.87,3.73-9.13c3.02-2.29,6.32-2.18,9.76-0.54c-0.06,1.03-0.42,2.18-0.11,3.11c0.28,0.86,1.36,2.13,1.93,2.05
			c0.88-0.12,2.22-1.14,2.33-1.93c0.31-2.12,1.06-3.68,2.78-5.03c0.6-0.48,0.39-1.99,0.55-3.03c-1.12-0.13-2.63-0.78-3.3-0.29
			C68.63,26.52,67.36,26.35,65.81,24.93z M61.78,47.02c-2.12,0.52-3.89,0.47-3.92,2.72c-0.03,2.04,1.57,2.32,3.14,2.31
			c1.66-0.01,3.47-0.37,3.24-2.43C64.13,48.68,62.64,47.88,61.78,47.02z"/>
  </g>
  <g transform="translate(-20, 0)">
    <path fill="#f1c97d" d="M235.57,55.7c4.26,0,8.34-0.29,12.36,0.09c3.61,0.34,5.78,3.23,5.9,7.24c0.15,5.08,0.09,10.16,0.09,15.24
			c0.01,13.24,0.01,26.49-0.01,39.73c0,1.49-0.04,3-0.32,4.46c-0.72,3.76-3.01,5.93-6.79,6.13c-3.65,0.2-7.31,0.04-11.23,0.04
			C235.57,104.28,235.57,80.02,235.57,55.7z M241.91,122.17c4.71,0.47,5.65-0.18,5.66-4.23c0.05-17.32,0.05-34.65,0-51.97
			c-0.01-3.95-1.8-5.07-5.66-3.8C241.91,82.12,241.91,102.07,241.91,122.17z"/>
    <path fill="#f1c97d" d="M294.2,128.51c-1.96,0-3.73,0-5.8,0c-0.29-4.83-0.57-9.59-0.89-14.85c-3.99,4.53-6.35,9.1-5.93,14.87
			c-2.13,0-3.91,0-5.95,0c1.28-24.39,2.55-48.62,3.83-73.01c3.71,0,7.16,0,10.92,0C291.66,79.86,292.92,104.09,294.2,128.51z
			 M285.14,68.72c-0.18-0.01-0.37-0.02-0.55-0.03c-0.67,13.12-1.34,26.23-2.04,39.85c3.17-3.39,4.13-5.57,4.02-10.19
			c-0.15-6.32-0.53-12.64-0.84-18.96C285.56,75.83,285.34,72.28,285.14,68.72z"/>
    <path fill="#f1c97d" d="M259.16,55.48c3.91,0,7.63,0,11.55,0c0,2.05,0,3.99,0,5.95c-0.28,0.11-0.49,0.27-0.72,0.29c-4.74,0.4-4.74,0.4-4.74,5.12
			c0,7.16,0,14.32,0,21.78c1.85,0,3.55,0,5.46,0c0,2.24,0,4.19,0,6.4c-1.66,0.1-3.35,0.19-5.25,0.3c0,8.9,0,17.69,0,26.78
			c1.64,0,3.33,0,5.24,0c0,2.25,0,4.19,0,6.36c-3.74,0-7.52,0-11.54,0C259.16,104.28,259.16,80.01,259.16,55.48z"/>
    <path fill="#706b68" d="M353.02,127.88c0-6.14-0.23-12.22,0.07-18.27c0.29-5.9-1.96-10.66-5.7-15.32c-2.97,3.95-5.53,7.87-5.53,12.95
			c0,6,0,12,0,18c0,0.9,0,1.8,0,2.79c-0.98,0-1.69,0-2.7,0c0-1.03,0-1.93,0-2.82c0-22.08,0.03-44.16-0.05-66.23
			c-0.01-2.36,0.57-3.35,3.04-3.09c2.23,0.23,4.49,0.11,6.73,0.26c4.41,0.3,6.58,2.28,6.78,6.72c0.21,4.9,0.08,9.83-0.04,14.74
			c-0.11,4.72-2.48,8.55-5.22,12.15c-1.06,1.39-1.25,2.52-0.07,3.95c4.31,5.19,5.88,11.18,5.46,17.9c-0.3,4.81-0.11,9.66-0.03,14.49
			C355.78,127.9,355.13,128.54,353.02,127.88z M342.04,58.78c0,12.85,0,25.33,0,38.58c3.28-4.94,6.52-9.07,8.93-13.63
			c3.64-6.9,2.04-14.45,1.57-21.77c-0.12-1.9-1.84-2.99-3.71-3.14C346.63,58.64,344.4,58.78,342.04,58.78z"/>
    <path fill="#f1c97d" d="M224.2,55.49c2.07,0,3.96,0,6.03,0c0,24.34,0,48.54,0,72.97c-1.91,0-3.86,0-6.03,0C224.2,104.28,224.2,80.01,224.2,55.49z
			"/>
    <path fill="#706b68" d="M332.72,92.12c0,9.08,0.03,18.15-0.03,27.22c-0.01,1.64-0.1,3.37-0.61,4.91c-1.18,3.62-4.9,5.13-10.01,4.31
			c-3.37-0.54-5.1-2.23-5.63-5.69c-0.24-1.55-0.41-3.14-0.41-4.71c-0.03-17.82-0.02-35.63-0.01-53.45c0-1.16,0.06-2.33,0.24-3.48
			c0.56-3.54,2.09-5.08,5.67-5.53c1.55-0.19,3.15-0.19,4.7-0.04c3.25,0.3,5.16,2.08,5.74,5.27c0.24,1.3,0.33,2.64,0.33,3.97
			C332.73,73.97,332.72,83.04,332.72,92.12z M318.85,91.91c0,9.49-0.04,18.97,0.02,28.46c0.02,3.82,1.79,5.5,5.5,5.53
			c3.65,0.03,5.55-1.71,5.56-5.51c0.05-18.89,0.05-37.78,0-56.67c-0.01-3.69-1.81-5.42-5.29-5.57c-3.8-0.16-5.77,1.73-5.79,5.79
			C318.82,73.27,318.85,82.59,318.85,91.91z"/>
    <path fill="#706b68" d="M378.79,82.09c-1.02,0-1.75,0-2.76,0c0-1.02,0-1.91,0-2.81c0-5.16,0.04-10.33-0.02-15.49c-0.05-3.76-1.93-5.62-5.49-5.64
			c-3.58-0.02-5.55,1.77-5.57,5.54c-0.06,18.82-0.06,37.65-0.01,56.47c0.01,3.9,2.03,5.79,5.65,5.74c3.71-0.05,5.4-1.86,5.43-5.91
			c0.04-5.06,0.01-10.12,0.01-15.12c-5.26-1.1-5.26-1.1-5.14-2.9c2.51,0,5.05,0,7.73,0c0.07,0.34,0.22,0.72,0.22,1.11
			c0.02,5.75,0.12,11.5-0.01,17.24c-0.16,7.25-6.81,11.03-13.16,7.33c-1.44-0.84-2.41-2.86-3.06-4.54
			c-0.55-1.41-0.43-3.11-0.43-4.69c-0.02-17.99-0.02-35.98,0-53.98c0-1.24,0.07-2.5,0.29-3.72c0.53-2.9,2.22-4.5,5.13-4.99
			c0.9-0.15,1.81-0.3,2.72-0.32c5.71-0.1,8.24,2.05,8.44,7.73C378.95,69.37,378.79,75.61,378.79,82.09z"/>
    <path fill="#706b68" d="M395.21,55.9c0,1,0,1.72,0,2.7c-2.33,0-4.63,0-7.14,0c0,10.78,0,21.29,0,32.08c2.38,0,4.68,0,7.13,0
			c0.05,0.98,0.09,1.68,0.14,2.69c-2.45,0-4.74,0-7.26,0c0,10.81,0,21.33,0,32.28c1.8,0,3.6,0.05,5.4-0.01
			c1.76-0.07,2.22,0.68,1.61,2.39c-3.19,0-6.39,0-9.8,0c-0.05-1.03-0.13-1.93-0.13-2.82c-0.01-22.08,0.03-44.15-0.05-66.23
			c-0.01-2.35,0.54-3.33,3.03-3.11C390.43,56.06,392.76,55.9,395.21,55.9z"/>
    <path fill="#706b68" d="M309.65,93.48c-2.37,0-4.67,0-7.24,0c0,11.65,0,23.02,0,34.53c-0.99,0-1.7,0-2.63,0c-0.04-0.96-0.12-1.85-0.12-2.74
			c-0.01-22.07,0.04-44.14-0.06-66.22c-0.01-2.54,0.66-3.43,3.21-3.19c2.21,0.21,4.47,0.04,6.86,0.04c0.08,0.94,0.14,1.65,0.23,2.73
			c-2.52,0-4.88,0-7.38,0c0,10.81,0,21.26,0,31.99c2.38,0,4.67,0,7.14,0C309.65,91.67,309.65,92.43,309.65,93.48z"/>
  </g>
</svg>